<svg xmlns="http://www.w3.org/2000/svg" viewBox="0 0 1200 560" role="img" aria-labelledby="title desc">
  <title id="title">GGG Cheese — Computing is my medium</title>
  <desc id="desc">An editorial profile poster with a glass lens, overlapping player cards, and a spinning vinyl record.</desc>

  <defs>
    <linearGradient id="pageGlow" x1="0" y1="0" x2="1" y2="1">
      <stop offset="0" stop-color="#f7f5ef"/>
      <stop offset="0.46" stop-color="#ebeae4"/>
      <stop offset="1" stop-color="#dedfd9"/>
    </linearGradient>
    <radialGradient id="lensBase" cx="35%" cy="25%" r="78%">
      <stop offset="0" stop-color="#fff" stop-opacity="0.98"/>
      <stop offset="0.32" stop-color="#fff8f5" stop-opacity="0.8"/>
      <stop offset="0.68" stop-color="#e0e5e6" stop-opacity="0.72"/>
      <stop offset="1" stop-color="#b7d6d6" stop-opacity="0.54"/>
    </radialGradient>
    <radialGradient id="lensPeach" cx="50%" cy="50%" r="50%">
      <stop offset="0" stop-color="#ffbda9" stop-opacity="0.86"/>
      <stop offset="1" stop-color="#ffbda9" stop-opacity="0"/>
    </radialGradient>
    <radialGradient id="lensCyan" cx="50%" cy="50%" r="50%">
      <stop offset="0" stop-color="#8edee5" stop-opacity="0.8"/>
      <stop offset="1" stop-color="#8edee5" stop-opacity="0"/>
    </radialGradient>
    <radialGradient id="lensLilac" cx="50%" cy="50%" r="50%">
      <stop offset="0" stop-color="#c9b6ff" stop-opacity="0.72"/>
      <stop offset="1" stop-color="#c9b6ff" stop-opacity="0"/>
    </radialGradient>
    <linearGradient id="foil" x1="0" y1="0" x2="1" y2="1">
      <stop offset="0" stop-color="#7be8ef"/>
      <stop offset="0.32" stop-color="#e1c5ff"/>
      <stop offset="0.64" stop-color="#ffb3b3"/>
      <stop offset="1" stop-color="#c9f24a"/>
    </linearGradient>
    <linearGradient id="cardBlue" x1="0" y1="0" x2="1" y2="1">
      <stop offset="0" stop-color="#18234f"/>
      <stop offset="0.54" stop-color="#4b2d80"/>
      <stop offset="1" stop-color="#ef8cb9"/>
    </linearGradient>
    <linearGradient id="cardGold" x1="0" y1="0" x2="1" y2="1">
      <stop offset="0" stop-color="#1a2532"/>
      <stop offset="0.5" stop-color="#76652d"/>
      <stop offset="1" stop-color="#e8d57a"/>
    </linearGradient>
    <radialGradient id="recordLabel" cx="35%" cy="30%" r="75%">
      <stop offset="0" stop-color="#e9b7ff"/>
      <stop offset="0.48" stop-color="#81dce7"/>
      <stop offset="1" stop-color="#c9f24a"/>
    </radialGradient>
    <filter id="lensShadow" x="-40%" y="-40%" width="180%" height="190%">
      <feDropShadow dx="0" dy="25" stdDeviation="22" flood-color="#333833" flood-opacity="0.18"/>
    </filter>
    <filter id="softBlur" x="-50%" y="-50%" width="200%" height="200%">
      <feGaussianBlur stdDeviation="28"/>
    </filter>
    <filter id="cardShadow" x="-60%" y="-60%" width="220%" height="240%">
      <feDropShadow dx="0" dy="15" stdDeviation="12" flood-color="#151812" flood-opacity="0.24"/>
    </filter>
    <filter id="grain" x="0" y="0" width="100%" height="100%">
      <feTurbulence type="fractalNoise" baseFrequency="0.78" numOctaves="3" seed="17"/>
      <feColorMatrix type="matrix" values="1 0 0 0 0  0 1 0 0 0  0 0 1 0 0  0 0 0 .12 0"/>
    </filter>
    <clipPath id="lensClip">
      <circle cx="600" cy="278" r="190"/>
    </clipPath>
    <clipPath id="cardGlintClip">
      <rect x="40" y="305" width="205" height="225" rx="18"/>
    </clipPath>
  </defs>

  <style>
    .page { fill: url(#pageGlow); }
    .ink { fill: #141512; }
    .muted { fill: #666861; }
    .lens-ink { fill: #141512; }
    .lens-caption { fill: #555850; }
    .hairline { fill: none; stroke: #141512; stroke-opacity: .16; }
    .gridline { stroke: #141512; stroke-opacity: .075; }
    .mono { font-family: ui-monospace, SFMono-Regular, Menlo, Consolas, monospace; }
    .serif { font-family: Georgia, 'Times New Roman', serif; }
    .sans { font-family: Inter, Helvetica, Arial, sans-serif; }
    .spectral { animation: spectral-drift 9s ease-in-out infinite alternate; transform-box: view-box; transform-origin: 600px 278px; }
    .live-dot { animation: live-pulse 2.4s ease-in-out infinite; transform-box: fill-box; transform-origin: center; }
    .card-stack { animation: card-float 7s ease-in-out infinite; transform-box: fill-box; transform-origin: center; }
    .glint { animation: glint-pass 5.8s cubic-bezier(.22,.8,.22,1) infinite; }
    .record { animation: record-spin 8s linear infinite; transform-box: view-box; transform-origin: 1068px 438px; }

    @keyframes spectral-drift {
      from { transform: translate3d(-9px, 6px, 0) rotate(-2deg) scale(1.02); }
      to { transform: translate3d(12px, -8px, 0) rotate(2deg) scale(1.07); }
    }
    @keyframes live-pulse {
      0%, 100% { transform: scale(.78); opacity: .55; }
      50% { transform: scale(1.12); opacity: 1; }
    }
    @keyframes card-float {
      0%, 100% { transform: translateY(0) rotate(-.3deg); }
      50% { transform: translateY(-7px) rotate(.3deg); }
    }
    @keyframes glint-pass {
      0%, 58% { transform: translateX(-210px); opacity: 0; }
      67% { opacity: .65; }
      86%, 100% { transform: translateX(280px); opacity: 0; }
    }
    @keyframes record-spin { to { transform: rotate(360deg); } }

    @media (prefers-color-scheme: dark) {
      .page { fill: #10110f; }
      .ink { fill: #f0f0ea; }
      .muted { fill: #a6a89f; }
      .hairline { stroke: #f0f0ea; stroke-opacity: .18; }
      .gridline { stroke: #f0f0ea; stroke-opacity: .07; }
    }
    @media (prefers-reduced-motion: reduce) {
      .spectral, .live-dot, .card-stack, .glint, .record { animation: none !important; }
    }
  </style>

  <rect class="page" x="1" y="1" width="1198" height="558" rx="24"/>
  <rect class="hairline" x="1.5" y="1.5" width="1197" height="557" rx="23.5"/>

  <g aria-hidden="true">
    <path class="gridline" d="M50 86H1150M50 486H1150M260 50V510M940 50V510"/>
    <path class="gridline" stroke-dasharray="2 8" d="M50 278H1150M600 50V510"/>
    <path class="hairline" d="M43 50h28M50 43v28M1129 50h28M1150 43v28M43 510h28M50 503v28M1129 510h28M1150 503v28"/>
  </g>

  <g class="mono" font-size="10" letter-spacing="2.2">
    <text class="ink" x="50" y="66">GGG / PERSONAL INDEX</text>
    <text class="muted" x="50" y="99">EDITION 2026—08</text>
    <text class="ink" x="1150" y="66" text-anchor="end">WUHAN · 30.5928° N</text>
    <text class="muted" x="1150" y="99" text-anchor="end">SIGNAL: ONLINE</text>
  </g>

  <ellipse cx="600" cy="474" rx="157" ry="23" fill="#222720" opacity=".13" filter="url(#softBlur)"/>

  <g filter="url(#lensShadow)">
    <circle cx="600" cy="278" r="190" fill="url(#lensBase)"/>
  </g>
  <g clip-path="url(#lensClip)">
    <g class="spectral" opacity=".82" filter="url(#softBlur)">
      <ellipse cx="482" cy="218" rx="126" ry="110" fill="url(#lensPeach)"/>
      <ellipse cx="718" cy="218" rx="134" ry="110" fill="url(#lensCyan)"/>
      <ellipse cx="616" cy="392" rx="146" ry="104" fill="url(#lensLilac)"/>
    </g>
    <path d="M430 221C507 105 676 74 769 201C681 151 546 163 430 221Z" fill="#fff" opacity=".34"/>
    <path d="M446 392C540 455 677 468 754 382" fill="none" stroke="url(#foil)" stroke-width="18" stroke-linecap="round" opacity=".22"/>
    <rect x="405" y="88" width="390" height="380" filter="url(#grain)" opacity=".17"/>
  </g>
  <circle class="hairline" cx="600" cy="278" r="190" stroke-width="1.5"/>
  <circle cx="600" cy="278" r="178" fill="none" stroke="#fff" stroke-opacity=".3"/>

  <g text-anchor="middle">
    <text class="serif lens-ink" x="600" y="270" font-size="92" letter-spacing="9">GGG</text>
    <text class="serif lens-ink" x="600" y="344" font-size="76" letter-spacing="5">CHEESE</text>
    <text class="mono lens-caption" x="600" y="380" font-size="10" letter-spacing="3.2">COMPUTING IS MY MEDIUM</text>
  </g>

  <g aria-label="Live indicator">
    <circle class="live-dot" cx="760" cy="147" r="13" fill="#c9f24a" opacity=".48"/>
    <circle cx="760" cy="147" r="4.5" fill="#141512"/>
  </g>

  <g class="card-stack" filter="url(#cardShadow)" aria-label="Player card archive">
    <g transform="rotate(-10 128 417)">
      <rect x="76" y="331" width="104" height="148" rx="11" fill="url(#cardBlue)" stroke="#e5dcff" stroke-opacity=".76"/>
      <path d="M86 360H170M86 452H170" stroke="#fff" stroke-opacity=".22"/>
      <circle cx="128" cy="403" r="31" fill="none" stroke="#f5ddff" stroke-opacity=".42"/>
      <path d="M106 427C109 397 117 381 129 381C143 381 149 399 151 427Z" fill="#101425" opacity=".72"/>
      <text class="mono" x="87" y="353" font-size="10" letter-spacing="1.5" fill="#fff">11 / K.I.</text>
      <text class="serif" x="128" y="465" text-anchor="middle" font-size="12" fill="#fff">HANDLE THE LIGHT</text>
    </g>
    <g transform="rotate(9 168 416)">
      <rect x="116" y="326" width="104" height="148" rx="11" fill="url(#cardGold)" stroke="#f4e5a6" stroke-opacity=".88"/>
      <path d="M126 355H210M126 447H210" stroke="#fff" stroke-opacity=".22"/>
      <path d="M134 414L168 370L202 414L168 455Z" fill="none" stroke="#f5dc70" stroke-opacity=".54"/>
      <path d="M146 429C149 398 157 382 169 382C183 382 189 401 191 429Z" fill="#151917" opacity=".72"/>
      <text class="mono" x="127" y="348" font-size="10" letter-spacing="1.5" fill="#fff">10 / NJR</text>
      <text class="serif" x="168" y="460" text-anchor="middle" font-size="12" fill="#fff">ARCHIVE THE GAME</text>
    </g>
    <g clip-path="url(#cardGlintClip)">
      <rect class="glint" x="-25" y="290" width="24" height="250" fill="#fff" opacity="0" transform="rotate(18 0 415)"/>
    </g>
  </g>

  <g class="mono" font-size="9" letter-spacing="1.8">
    <text class="ink" x="50" y="494">PLAYER ARCHIVE / 055</text>
    <text class="muted" x="50" y="514">NBA · NFL · FOOTBALL</text>
  </g>

  <g aria-label="Vinyl study">
    <g class="record">
      <circle cx="1068" cy="438" r="53" fill="#11130f"/>
      <circle cx="1068" cy="438" r="46" fill="none" stroke="#9b9e95" stroke-opacity=".2"/>
      <circle cx="1068" cy="438" r="39" fill="none" stroke="#9b9e95" stroke-opacity=".16"/>
      <circle cx="1068" cy="438" r="31" fill="none" stroke="#9b9e95" stroke-opacity=".14"/>
      <path d="M1029 404A52 52 0 0 1 1104 414" fill="none" stroke="#fff" stroke-width="2.5" stroke-linecap="round" opacity=".23"/>
      <circle cx="1068" cy="438" r="17" fill="url(#recordLabel)"/>
      <path d="M1053 437H1083" stroke="#141512" stroke-opacity=".25"/>
      <circle cx="1068" cy="438" r="3" fill="#ebeae4"/>
    </g>
    <circle cx="1140" cy="366" r="15" fill="#d6d7d0" stroke="#141512" stroke-opacity=".28"/>
    <circle cx="1140" cy="366" r="5" fill="#444740"/>
    <path d="M1134 374L1090 422" fill="none" stroke="#b3b5ad" stroke-width="6" stroke-linecap="round"/>
    <path d="M1091 422L1083 433" fill="none" stroke="#343731" stroke-width="5" stroke-linecap="round"/>
  </g>

  <g class="mono" font-size="9" letter-spacing="1.8" text-anchor="end">
    <text class="ink" x="1150" y="494">VINYL STUDY / 001</text>
    <text class="muted" x="1150" y="514">SOUND · MOTION · MEMORY</text>
  </g>

  <g class="mono" font-size="8" letter-spacing="1.5">
    <text class="muted" x="275" y="530">01 — GLASS</text>
    <text class="muted" x="488" y="530">02 — WATER</text>
    <text class="muted" x="692" y="530">03 — TYPE</text>
    <text class="muted" x="855" y="530">04 — SOUND</text>
  </g>
</svg>
